<?xml version="1.0" encoding="utf-8"?>
<!-- Generator: Adobe Illustrator 15.0.0, SVG Export Plug-In . SVG Version: 6.00 Build 0)  -->
<!DOCTYPE svg PUBLIC "-//W3C//DTD SVG 1.1//EN" "http://www.w3.org/Graphics/SVG/1.1/DTD/svg11.dtd">
<svg version="1.1" id="Layer_1" xmlns="http://www.w3.org/2000/svg" xmlns:xlink="http://www.w3.org/1999/xlink" x="0px" y="0px"
	 width="32px" height="32px" viewBox="484 484 32 32" enable-background="new 484 484 32 32" xml:space="preserve">
<path fill="#C6C6C6" d="M484.292,499.968c0-4.327,1.531-8.021,4.593-11.083s6.756-4.593,11.083-4.593
	c4.328,0,8.021,1.531,11.084,4.593c3.061,3.062,4.592,6.756,4.592,11.083s-1.531,8.021-4.592,11.084
	c-3.063,3.061-6.756,4.592-11.084,4.592c-4.327,0-8.021-1.531-11.083-4.592C485.823,507.989,484.292,504.295,484.292,499.968
	L484.292,499.968z M491.946,506.029h16.043l-5.205-5.449l-2.816,1.592l-2.816-1.592L491.946,506.029z M491.946,504.192l4.103-4.286
	l-4.103-2.327V504.192z M491.946,496.171l8.021,4.531l8.021-4.531v-2.266h-16.043V496.171L491.946,496.171z M503.887,499.906
	l4.103,4.286v-6.613L503.887,499.906z"/>
</svg>
